<svg width="42" height="42" viewBox="0 0 42 42" fill="none" xmlns="http://www.w3.org/2000/svg">
<g clip-path="url(#clip0_34_32)">
<path d="M0.537381 10.1077C0.551877 6.45395 4.97698 4.60519 7.54979 7.17798L13.7829 13.4111L26.1492 1.04476C27.2087 -0.0146904 28.9192 -0.0218513 29.9699 1.02879L41.1124 12.1713C42.1631 13.222 42.1559 14.9326 41.0965 15.992L28.7302 28.3584L34.9972 34.6254C37.57 37.1982 35.7212 41.6233 32.0675 41.6378L4.51082 41.7472C2.24672 41.7561 0.419035 39.9285 0.428018 37.6644L0.537381 10.1077Z" fill="black"/>
<path d="M1.77485 10.3082C1.79494 7.69137 4.96459 6.37399 6.80725 8.21665L13.7755 15.1849L27.101 1.8595C27.6496 1.31085 28.5355 1.30715 29.0796 1.85124L40.324 13.0956C40.868 13.6397 40.8644 14.5256 40.3157 15.0743L26.9903 28.3997L33.8906 35.3C35.7332 37.1426 34.4159 40.3123 31.799 40.3324L4.5061 40.5419C2.87274 40.5545 1.55275 39.2345 1.56528 37.6011L1.77485 10.3082Z" fill="white"/>
<path d="M5.21936 12.5314C5.22384 12.2323 5.58622 12.0832 5.79683 12.2938L13.203 19.7C13.2781 19.7751 13.4003 19.7746 13.4759 19.6989L27.8719 5.30291C27.9476 5.22724 28.0698 5.22673 28.1448 5.30177L36.8414 13.9984C36.9165 14.0734 36.9159 14.1956 36.8403 14.2713L22.4443 28.6672C22.3686 28.7429 22.3681 28.8651 22.4432 28.9402L29.8493 36.3463C30.0599 36.5569 29.9109 36.9193 29.6118 36.9238L5.19376 37.2893C5.00442 37.2921 4.85106 37.1387 4.85388 36.9494L5.21936 12.5314Z" fill="black"/>
<path d="M13.6253 21.9658C13.6441 21.9846 13.6746 21.9845 13.6935 21.9655L27.9696 7.68947C27.9885 7.67055 28.0191 7.67042 28.0378 7.68918L34.3564 14.0078C34.3752 14.0266 34.3751 14.0571 34.3562 14.076L20.0801 28.3521C20.0612 28.371 20.061 28.4016 20.0798 28.4203L27.0088 35.3493C27.0391 35.3796 27.0174 35.4316 26.9744 35.4318L6.54714 35.5466C6.52044 35.5467 6.49888 35.5252 6.49903 35.4985L6.61379 15.0712C6.61403 15.0283 6.66605 15.0066 6.69629 15.0368L13.6253 21.9658Z" fill="white"/>
</g>
<defs>
<clipPath id="clip0_34_32">
<rect width="42" height="42" fill="white"/>
</clipPath>
</defs>
</svg>
